<svg width="10" height="5" viewBox="0 0 10 5" fill="none" xmlns="http://www.w3.org/2000/svg">
<path d="M9.01528 0.765308L5.26528 4.51531C5.23045 4.55017 5.18909 4.57783 5.14357 4.5967C5.09804 4.61558 5.04925 4.62529 4.99996 4.62529C4.95068 4.62529 4.90189 4.61558 4.85636 4.5967C4.81084 4.57783 4.76948 4.55017 4.73465 4.51531L0.984652 0.765308C0.914287 0.694942 0.874756 0.599506 0.874756 0.499995C0.874756 0.400483 0.914287 0.305047 0.984652 0.234682C1.05502 0.164317 1.15045 0.124786 1.24996 0.124786C1.34948 0.124786 1.44491 0.164317 1.51528 0.234682L4.99996 3.71984L8.48465 0.234682C8.51949 0.199841 8.56086 0.172203 8.60638 0.153347C8.6519 0.134491 8.70069 0.124786 8.74996 0.124786C8.79924 0.124786 8.84803 0.134491 8.89355 0.153347C8.93907 0.172203 8.98044 0.199841 9.01528 0.234682C9.05012 0.269524 9.07776 0.310886 9.09661 0.356409C9.11547 0.401931 9.12517 0.450722 9.12517 0.499995C9.12517 0.549268 9.11547 0.598059 9.09661 0.643581C9.07776 0.689103 9.05012 0.730466 9.01528 0.765308Z" fill="#1D1D1B"/>
</svg>